<svg xmlns="http://www.w3.org/2000/svg" xmlns:xlink="http://www.w3.org/1999/xlink" version="1.1" x="0px" y="0px" viewBox="0 0 110 137.5" enable-background="new 0 0 110 110" xml:space="preserve"><g><path d="M97.403,45.847h3.317c1.657,0,3-1.343,3-3s-1.343-3-3-3h-3.323c-0.648-1.232-1.681-2.227-2.938-2.834V24.287   c1.228-0.592,2.245-1.553,2.895-2.747h3.365c1.657,0,3-1.343,3-3s-1.343-3-3-3h-3.275c-0.644-1.277-1.696-2.311-2.986-2.933V9.279   c0-1.657-1.343-3-3-3s-3,1.343-3,3v3.529c-1.112,0.633-2.017,1.585-2.595,2.731H73.211c-0.656-1.301-1.735-2.35-3.058-2.968V9.279   c0-1.657-1.343-3-3-3s-3,1.343-3,3v3.573c-1.079,0.633-1.958,1.566-2.523,2.687H48.798c-0.638-1.266-1.677-2.293-2.951-2.917V9.279   c0-1.657-1.343-3-3-3s-3,1.343-3,3v3.509c-1.128,0.633-2.045,1.594-2.629,2.752H24.399c-0.623-1.236-1.626-2.244-2.859-2.872V9.279   c0-1.657-1.343-3-3-3s-3,1.343-3,3v3.455c-1.171,0.632-2.122,1.616-2.722,2.806H9.279c-1.657,0-3,1.343-3,3s1.343,3,3,3h3.629   c0.604,1.108,1.521,2.02,2.632,2.619V37.14c-1.139,0.614-2.072,1.56-2.674,2.706H9.279c-1.657,0-3,1.343-3,3s1.343,3,3,3h3.581   c0.602,1.151,1.537,2.102,2.68,2.718v12.797c-1.166,0.629-2.114,1.608-2.715,2.791H9.279c-1.657,0-3,1.343-3,3s1.343,3,3,3h3.622   c0.603,1.114,1.524,2.032,2.639,2.633v12.981c-1.134,0.612-2.065,1.553-2.667,2.693H9.279c-1.657,0-3,1.343-3,3s1.343,3,3,3h3.575   c0.602,1.157,1.539,2.113,2.686,2.732v3.529c0,1.657,1.343,3,3,3s3-1.343,3-3v-3.463c1.208-0.616,2.198-1.596,2.823-2.798h12.89   c0.585,1.125,1.489,2.058,2.593,2.678v3.583c0,1.657,1.343,3,3,3s3-1.343,3-3v-3.418c1.25-0.612,2.275-1.61,2.916-2.842h12.904   c0.566,1.089,1.432,1.994,2.487,2.613v3.648c0,1.657,1.343,3,3,3s3-1.343,3-3v-3.367c1.298-0.606,2.363-1.626,3.022-2.894h12.725   c0.579,1.114,1.471,2.038,2.559,2.657v3.604c0,1.657,1.343,3,3,3s3-1.343,3-3v-3.402c1.265-0.61,2.303-1.615,2.95-2.859h3.311   c1.657,0,3-1.343,3-3s-1.343-3-3-3h-3.33c-0.648-1.226-1.679-2.216-2.931-2.82V72.914c1.232-0.594,2.253-1.561,2.902-2.76h3.358   c1.657,0,3-1.343,3-3s-1.343-3-3-3h-3.282c-0.645-1.271-1.694-2.299-2.979-2.919V48.692C95.721,48.084,96.756,47.084,97.403,45.847   z M85.919,88.46H73.157c-0.661-1.25-1.719-2.255-3.003-2.855V72.948c1.265-0.591,2.312-1.572,2.975-2.795h12.82   c0.58,1.071,1.455,1.957,2.512,2.558v13.13C87.384,86.454,86.499,87.363,85.919,88.46z M21.54,85.701V72.852   c1.175-0.599,2.148-1.541,2.775-2.699h12.985c0.586,1.082,1.473,1.978,2.546,2.579v13.089c-1.092,0.613-1.989,1.53-2.575,2.639   H24.344C23.718,87.275,22.735,86.31,21.54,85.701z M24.308,21.54h13c0.586,1.076,1.471,1.966,2.539,2.566v13.089   c-1.096,0.615-1.995,1.538-2.581,2.653H24.351c-0.626-1.191-1.611-2.161-2.811-2.772V24.225   C22.711,23.629,23.681,22.692,24.308,21.54z M88.46,24.085v13.13c-1.081,0.615-1.967,1.529-2.547,2.632h-12.75   c-0.66-1.256-1.721-2.266-3.01-2.868V24.322c1.26-0.589,2.305-1.565,2.968-2.781h12.834C86.535,22.605,87.407,23.486,88.46,24.085z    M48.791,64.153c-0.639-1.259-1.675-2.28-2.945-2.902V48.675c1.245-0.61,2.268-1.602,2.909-2.829h12.917   c0.566,1.083,1.429,1.983,2.48,2.599v13.034c-1.074,0.63-1.95,1.558-2.516,2.673H48.791z M64.153,24.041v13.218   c-1.047,0.614-1.908,1.51-2.475,2.588H48.75c-0.642-1.221-1.662-2.209-2.904-2.817V24.27c1.212-0.594,2.217-1.548,2.861-2.73   h13.013C62.287,22.58,63.134,23.443,64.153,24.041z M24.356,45.847H37.26c0.586,1.119,1.487,2.047,2.587,2.664v12.905   c-1.124,0.63-2.038,1.586-2.622,2.737H24.392c-0.623-1.229-1.624-2.232-2.852-2.857V48.631   C22.743,48.017,23.731,47.043,24.356,45.847z M45.847,85.657V72.897c1.217-0.596,2.224-1.555,2.868-2.744h12.999   c0.567,1.046,1.415,1.914,2.439,2.515v13.218c-1.043,0.612-1.902,1.503-2.468,2.574H48.744   C48.101,87.245,47.083,86.262,45.847,85.657z M85.872,64.153H73.204c-0.657-1.295-1.733-2.338-3.051-2.953V48.727   c1.293-0.604,2.356-1.619,3.016-2.88h12.738c0.579,1.108,1.468,2.026,2.553,2.643v12.947C87.352,62.067,86.45,63.014,85.872,64.153   z"/></g><text x="0" y="125" fill="#000000" font-size="5px" font-weight="bold" font-family="'Helvetica Neue', Helvetica, Arial-Unicode, Arial, Sans-serif">Created by Pixelicatom</text><text x="0" y="130" fill="#000000" font-size="5px" font-weight="bold" font-family="'Helvetica Neue', Helvetica, Arial-Unicode, Arial, Sans-serif">from the Noun Project</text></svg>