<svg xmlns="http://www.w3.org/2000/svg" xmlns:xlink="http://www.w3.org/1999/xlink" version="1.1" x="0px" y="0px" viewBox="0 0 100 125" enable-background="new 0 0 100 100" xml:space="preserve"><path d="M20.884,95.884L25,91.768l4.116,4.116c0.488,0.488,1.279,0.488,1.768,0L35,91.768l4.116,4.116  c0.488,0.488,1.279,0.488,1.768,0L45,91.768l4.116,4.116c0.488,0.488,1.279,0.488,1.768,0L55,91.768l4.116,4.116  c0.488,0.488,1.279,0.488,1.768,0L65,91.768l4.116,4.116c0.488,0.488,1.279,0.488,1.768,0L75,91.768l4.116,4.116  C79.36,96.128,79.68,96.25,80,96.25s0.64-0.122,0.884-0.366c0.488-0.488,0.488-1.279,0-1.768l-5-5c-0.488-0.488-1.279-0.488-1.768,0  L70,93.232l-4.116-4.116c-0.488-0.488-1.279-0.488-1.768,0L60,93.232l-4.116-4.116c-0.488-0.488-1.279-0.488-1.768,0L50,93.232  l-4.116-4.116c-0.488-0.488-1.279-0.488-1.768,0L40,93.232l-4.116-4.116c-0.488-0.488-1.279-0.488-1.768,0L30,93.232l-4.116-4.116  c-0.488-0.488-1.279-0.488-1.768,0l-5,5c-0.488,0.488-0.488,1.279,0,1.768S20.396,96.372,20.884,95.884z"/><path d="M20.884,90.884L25,86.768l4.116,4.116c0.488,0.488,1.279,0.488,1.768,0L35,86.768l4.116,4.116  c0.488,0.488,1.279,0.488,1.768,0L45,86.768l4.116,4.116c0.488,0.488,1.279,0.488,1.768,0L55,86.768l4.116,4.116  c0.488,0.488,1.279,0.488,1.768,0L65,86.768l4.116,4.116c0.488,0.488,1.279,0.488,1.768,0L75,86.768l4.116,4.116  C79.36,91.128,79.68,91.25,80,91.25s0.64-0.122,0.884-0.366c0.488-0.488,0.488-1.279,0-1.768l-5-5c-0.488-0.488-1.279-0.488-1.768,0  L70,88.232l-4.116-4.116c-0.488-0.488-1.279-0.488-1.768,0L60,88.232l-4.116-4.116c-0.488-0.488-1.279-0.488-1.768,0L50,88.232  l-4.116-4.116c-0.488-0.488-1.279-0.488-1.768,0L40,88.232l-4.116-4.116c-0.488-0.488-1.279-0.488-1.768,0L30,88.232l-4.116-4.116  c-0.488-0.488-1.279-0.488-1.768,0l-5,5c-0.488,0.488-0.488,1.279,0,1.768S20.396,91.372,20.884,90.884z"/><path d="M25.884,79.116c-0.488-0.488-1.279-0.488-1.768,0l-5,5c-0.488,0.488-0.488,1.279,0,1.768s1.279,0.488,1.768,0L25,81.768  l4.116,4.116c0.488,0.488,1.279,0.488,1.768,0L35,81.768l4.116,4.116c0.488,0.488,1.279,0.488,1.768,0L45,81.768l4.116,4.116  c0.488,0.488,1.279,0.488,1.768,0L55,81.768l4.116,4.116c0.488,0.488,1.279,0.488,1.768,0L65,81.768l4.116,4.116  c0.488,0.488,1.279,0.488,1.768,0L75,81.768l4.116,4.116C79.36,86.128,79.68,86.25,80,86.25s0.64-0.122,0.884-0.366  c0.488-0.488,0.488-1.279,0-1.768l-5-5c-0.488-0.488-1.279-0.488-1.768,0L70,83.232l-1.982-1.982H70  c0.538,0,1.016-0.344,1.186-0.854l10-30c0.218-0.655-0.136-1.362-0.79-1.581l-4.146-1.382V37.5c0-0.552-0.362-1.039-0.891-1.197  L66.25,33.57V20c0-0.69-0.56-1.25-1.25-1.25h-8.75V12.5c0-0.69-0.56-1.25-1.25-1.25h-3.75V5c0-0.69-0.56-1.25-1.25-1.25  S48.75,4.31,48.75,5v6.25H45c-0.69,0-1.25,0.56-1.25,1.25v6.25H35c-0.69,0-1.25,0.56-1.25,1.25v13.57l-9.109,2.733  c-0.528,0.159-0.891,0.645-0.891,1.197v9.932l-4.146,1.382c-0.654,0.219-1.008,0.926-0.79,1.581l10,30  c0.17,0.51,0.648,0.854,1.186,0.854h1.982L30,83.232L25.884,79.116z M40,83.232l-1.982-1.982h3.965L40,83.232z M50,83.232  l-1.982-1.982h3.965L50,83.232z M46.25,13.75H50h3.75v5h-7.5V13.75z M26.25,46.596V38.43L50,31.305l23.75,7.125v8.166l-23.355-7.782  C50.267,38.771,50.133,38.75,50,38.75s-0.267,0.021-0.395,0.064L26.25,46.596z"/><text x="0" y="115" fill="#000000" font-size="5px" font-weight="bold" font-family="'Helvetica Neue', Helvetica, Arial-Unicode, Arial, Sans-serif">Created by Scribble.liners</text><text x="0" y="120" fill="#000000" font-size="5px" font-weight="bold" font-family="'Helvetica Neue', Helvetica, Arial-Unicode, Arial, Sans-serif">from the Noun Project</text></svg>