<svg xmlns="http://www.w3.org/2000/svg" xmlns:xlink="http://www.w3.org/1999/xlink" version="1.1" x="0px" y="0px" viewBox="0 0 100 125" enable-background="new 0 0 100 100" xml:space="preserve"><g><g><path d="M33,30.3c0.3,0.3,0.6,0.4,1,0.4c0.4,0,0.7-0.1,1-0.4l10.5-10.8L35,8.6C34.4,8,33.6,8,33,8.6c-0.5,0.5-0.6,1.4,0,1.9    l8.7,8.9L33,28.3C32.5,28.9,32.5,29.7,33,30.3z"/><path d="M35,69.8c-0.5-0.5-1.4-0.6-1.9,0c-0.5,0.5-0.6,1.4,0,1.9l8.7,8.9L33,89.5c-0.5,0.5-0.5,1.4,0,1.9c0.3,0.3,0.6,0.4,1,0.4    c0.4,0,0.7-0.1,1-0.4l10.5-10.8L35,69.8z"/><path d="M53.2,19.4l-8.7,8.9c-0.5,0.5-0.5,1.4,0,1.9c0.3,0.3,0.6,0.4,1,0.4c0.4,0,0.7-0.1,1-0.4L57,19.4L46.5,8.6    C46,8,45.1,8,44.6,8.6c-0.5,0.5-0.6,1.4,0,1.9L53.2,19.4z"/><path d="M46.5,69.8c-0.5-0.5-1.4-0.6-1.9,0c-0.5,0.5-0.6,1.4,0,1.9l8.7,8.9l-8.7,8.9c-0.5,0.5-0.5,1.4,0,1.9    c0.3,0.3,0.6,0.4,1,0.4c0.4,0,0.7-0.1,1-0.4L57,80.6L46.5,69.8z"/><path d="M64.7,19.4l-8.7,8.9c-0.5,0.5-0.5,1.4,0,1.9c0.3,0.3,0.6,0.4,1,0.4c0.4,0,0.7-0.1,1-0.4l10.5-10.8L58,8.6    c-0.5-0.5-1.4-0.6-1.9,0c-0.5,0.5-0.6,1.4,0,1.9L64.7,19.4z"/><path d="M56.1,69.7c-0.5,0.5-0.6,1.4,0,1.9l8.7,8.9l-8.7,8.9c-0.5,0.5-0.5,1.4,0,1.9c0.3,0.3,0.6,0.4,1,0.4c0.4,0,0.7-0.1,1-0.4    l10.5-10.8L58,69.8C57.5,69.2,56.6,69.2,56.1,69.7z"/><path d="M6.4,51c0.4,0,0.7-0.1,1-0.4l6.9-7.2c0.5-0.5,1.1-0.8,1.8-0.8c0.7,0,1.3,0.2,1.8,0.7l3.7,3.6c2.1,2,5.5,2.1,7.6,0.1    l4.2-3.8c1.1-1,2.8-0.9,3.9,0.1l3.9,3.8c2.1,2,5.5,2.1,7.6,0.1l4.1-3.9c1-1,2.8-1,3.8,0l3.8,3.8c2.1,2,5.5,2.1,7.6,0.1l4.3-4    c0.5-0.5,1.2-0.7,1.9-0.7c0.7,0,1.3,0.3,1.8,0.8l3.9,4.2c1,1.1,2.3,1.6,3.7,1.7c1.4,0,2.8-0.5,3.8-1.5l7.3-7.2    c0.5-0.5,0.5-1.4,0-1.9c-0.5-0.5-1.4-0.5-1.9,0l-7.3,7.2c-0.5,0.5-1.1,0.7-1.8,0.7c-0.7,0-1.3-0.3-1.7-0.8L78,41.6    c-1-1-2.3-1.7-3.7-1.7c-1.4-0.1-2.8,0.4-3.8,1.4l-4.3,4c-1.1,1-2.8,0.9-3.8-0.1l-3.8-3.8c-2.1-2-5.5-2.1-7.6-0.1l-4.1,3.9    c-1,1-2.8,1-3.8,0l-3.9-3.8c-2.1-2-5.5-2.1-7.6-0.1l-4.2,3.8c-1.1,1-2.8,0.9-3.9-0.1l-3.7-3.6c-1-1-2.3-1.6-3.8-1.5    c-1.4,0-2.7,0.6-3.7,1.6l-6.9,7.2c-0.5,0.5-0.5,1.4,0,1.9C5.7,50.9,6,51,6.4,51z"/><path d="M92.6,51.3l-7.3,7.2c-0.5,0.5-1.1,0.7-1.8,0.7c-0.7,0-1.3-0.3-1.7-0.8L78,54.3c-1-1-2.3-1.7-3.7-1.7    c-1.4-0.1-2.8,0.4-3.8,1.4l-4.3,4c-1.1,1-2.8,0.9-3.8-0.1l-3.8-3.8c-2.1-2-5.5-2.1-7.6-0.1l-4.1,3.9c-1,1-2.8,1-3.8,0l-3.9-3.8    c-2.1-2-5.5-2.1-7.6-0.1l-4.2,3.8c-1.1,1-2.8,0.9-3.9-0.1l-3.7-3.6c-1-1-2.3-1.5-3.8-1.5c-1.4,0-2.7,0.6-3.7,1.6l-6.9,7.2    c-0.5,0.5-0.5,1.4,0,1.9c0.3,0.3,0.6,0.4,1,0.4c0.4,0,0.7-0.1,1-0.4l6.9-7.2c0.5-0.5,1.1-0.8,1.8-0.8c0.7,0,1.3,0.2,1.8,0.7    l3.7,3.6c2.1,2,5.5,2.1,7.6,0.1l4.2-3.8c1.1-1,2.8-0.9,3.9,0.1l3.9,3.8c2.1,2,5.5,2.1,7.6,0.1l4.1-3.9c1-1,2.8-1,3.8,0l3.8,3.8    c2.1,2,5.5,2.1,7.6,0.1l4.3-4c0.5-0.5,1.2-0.7,1.9-0.7c0.7,0,1.3,0.3,1.8,0.8l3.9,4.2c1,1.1,2.3,1.6,3.7,1.7    c1.4,0,2.8-0.5,3.8-1.5l7.3-7.2c0.5-0.5,0.5-1.4,0-1.9C94.1,50.8,93.2,50.8,92.6,51.3z"/></g></g><text x="0" y="115" fill="#000000" font-size="5px" font-weight="bold" font-family="'Helvetica Neue', Helvetica, Arial-Unicode, Arial, Sans-serif">Created by Christine Soules</text><text x="0" y="120" fill="#000000" font-size="5px" font-weight="bold" font-family="'Helvetica Neue', Helvetica, Arial-Unicode, Arial, Sans-serif">from the Noun Project</text></svg>