<svg xmlns:dc="http://purl.org/dc/elements/1.1/" xmlns:cc="http://creativecommons.org/ns#" xmlns:rdf="http://www.w3.org/1999/02/22-rdf-syntax-ns#" xmlns:svg="http://www.w3.org/2000/svg" xmlns="http://www.w3.org/2000/svg" xmlns:sodipodi="http://sodipodi.sourceforge.net/DTD/sodipodi-0.dtd" xmlns:inkscape="http://www.inkscape.org/namespaces/inkscape" version="1.1" x="0px" y="0px" viewBox="0 0 100 125"><g transform="translate(0,-952.36218)"><path d="m 82.9689,954.36217 c 7.7327,0 14.0312,5.907 14.0312,14 0,1.8594 -0.52,4.8649 -1.125,6.5 l -12.875,27.50003 -12.875,-27.50003 c -0.6015,-1.6345 -1.125,-4.6414 -1.125,-6.5 0,-8.093 6.2359,-14 13.9688,-14 z m 0.031,8 c -3.3137,0 -6,2.6863 -6,6 0,3.3137 2.6863,6 6,6 3.3136,0 6,-2.6863 6,-6 0,-3.3137 -2.6864,-6 -6,-6 z m -63.9688,34 c 8.8374,0 15.9688,6.89543 15.9688,16.00003 0,2.0909 -0.5939,5.2237 -1.2812,7.0625 l -14.7188,30.9375 -14.7187998,-30.9375 c -0.6911,-1.8394 -1.2812,-4.9707 -1.2812,-7.0625 0,-9.1046 7.1940998,-16.00003 16.0311998,-16.00003 z m 59.875,2 1.875,4.00003 -25.7811,0 c -5.0206,0 -9,3.9794 -9,9 0,5.0206 3.9794,9 9,9 l 14.9999,0 c 8.2755,0 15,6.7246 15,15 0,8.2755 -6.7245,15 -15,15 l -48.7812,0 1.9062,-4 46.875,0 c 6.1287,0 11,-4.8713 11,-11 0,-6.1286 -4.8713,-11 -11,-11 l -14.9999,0 c -7.1674,0 -13,-5.8326 -13,-13 0,-7.1674 5.8326,-13.00003 13,-13.00003 z m -59.9062,7.00003 c -3.866,0 -7,3.134 -7,7 0,3.8659 3.134,7 7,7 3.8659,0 7,-3.1341 7,-7 0,-3.866 -3.1341,-7 -7,-7 z" style="text-indent:0;text-transform:none;direction:ltr;block-progression:tb;baseline-shift:baseline;color:#000000;enable-background:accumulate;" fill="#000000" fill-opacity="1" stroke="none" marker="none" visibility="visible" display="inline" overflow="visible"/></g><text x="0" y="115" fill="#000000" font-size="5px" font-weight="bold" font-family="'Helvetica Neue', Helvetica, Arial-Unicode, Arial, Sans-serif">Created by Numero Uno</text><text x="0" y="120" fill="#000000" font-size="5px" font-weight="bold" font-family="'Helvetica Neue', Helvetica, Arial-Unicode, Arial, Sans-serif">from the Noun Project</text></svg>